<svg width="68" height="36" viewBox="0 0 68 36" fill="none" xmlns="http://www.w3.org/2000/svg">
<path d="M17.2812 25.0391V0.875H21.7812V25.0391C21.7812 27.2891 21.3203 29.1875 20.3984 30.7344C19.4766 32.2812 18.2031 33.4609 16.5781 34.2734C14.9688 35.0703 13.1172 35.4688 11.0234 35.4688C8.92969 35.4688 7.07031 35.1094 5.44531 34.3906C3.82031 33.6719 2.54688 32.5781 1.625 31.1094C0.703125 29.6406 0.242188 27.7891 0.242188 25.5547H4.76562C4.76562 26.9922 5.03125 28.1719 5.5625 29.0938C6.09375 30.0156 6.82812 30.6953 7.76562 31.1328C8.71875 31.5703 9.80469 31.7891 11.0234 31.7891C12.2109 31.7891 13.2734 31.5391 14.2109 31.0391C15.1641 30.5234 15.9141 29.7656 16.4609 28.7656C17.0078 27.75 17.2812 26.5078 17.2812 25.0391ZM67.625 16.8594V19.0156C67.625 21.5781 67.3047 23.875 66.6641 25.9062C66.0234 27.9375 65.1016 29.6641 63.8984 31.0859C62.6953 32.5078 61.25 33.5938 59.5625 34.3438C57.8906 35.0938 56.0156 35.4688 53.9375 35.4688C51.9219 35.4688 50.0703 35.0938 48.3828 34.3438C46.7109 33.5938 45.2578 32.5078 44.0234 31.0859C42.8047 29.6641 41.8594 27.9375 41.1875 25.9062C40.5156 23.875 40.1797 21.5781 40.1797 19.0156V16.8594C40.1797 14.2969 40.5078 12.0078 41.1641 9.99219C41.8359 7.96094 42.7812 6.23438 44 4.8125C45.2188 3.375 46.6641 2.28125 48.3359 1.53125C50.0234 0.78125 51.875 0.40625 53.8906 0.40625C55.9688 0.40625 57.8438 0.78125 59.5156 1.53125C61.2031 2.28125 62.6484 3.375 63.8516 4.8125C65.0703 6.23438 66 7.96094 66.6406 9.99219C67.2969 12.0078 67.625 14.2969 67.625 16.8594ZM63.1484 19.0156V16.8125C63.1484 14.7812 62.9375 12.9844 62.5156 11.4219C62.1094 9.85938 61.5078 8.54688 60.7109 7.48438C59.9141 6.42188 58.9375 5.61719 57.7812 5.07031C56.6406 4.52344 55.3438 4.25 53.8906 4.25C52.4844 4.25 51.2109 4.52344 50.0703 5.07031C48.9453 5.61719 47.9766 6.42188 47.1641 7.48438C46.3672 8.54688 45.75 9.85938 45.3125 11.4219C44.875 12.9844 44.6562 14.7812 44.6562 16.8125V19.0156C44.6562 21.0625 44.875 22.875 45.3125 24.4531C45.75 26.0156 46.375 27.3359 47.1875 28.4141C48.0156 29.4766 48.9922 30.2812 50.1172 30.8281C51.2578 31.375 52.5312 31.6484 53.9375 31.6484C55.4062 31.6484 56.7109 31.375 57.8516 30.8281C58.9922 30.2812 59.9531 29.4766 60.7344 28.4141C61.5312 27.3359 62.1328 26.0156 62.5391 24.4531C62.9453 22.875 63.1484 21.0625 63.1484 19.0156Z" fill="black"/>
</svg>
